<svg width="484" height="83" xmlns="http://www.w3.org/2000/svg" xmlns:xlink="http://www.w3.org/1999/xlink" xml:space="preserve" overflow="hidden"><defs><clipPath id="clip0"><rect x="1385" y="45" width="484" height="83"/></clipPath></defs><g clip-path="url(#clip0)" transform="translate(-1385 -45)"><path d="M470.441 27.2681 471.281 27.2941C479.868 27.8387 485.639 36.6865 482.55 44.9849 480.148 51.4457 473.2 54.9069 466.676 52.8966L461.037 51.1599C459.296 50.6234 458.313 48.7585 458.843 46.9955 459.372 45.2327 461.215 44.24 462.956 44.7763L468.594 46.5133C471.796 47.4993 475.206 45.8016 476.384 42.6321 477.899 38.5616 475.064 34.2214 470.854 33.9547L470.441 33.9416 461.582 33.9416 450.843 53.2682C461.834 54.4402 472.284 59.1183 480.516 66.7097 481.862 67.9506 481.96 70.0593 480.736 71.4217 479.509 72.784 477.424 72.8843 476.078 71.6433 468.158 64.3399 457.866 60.1158 447.177 59.6876L446.411 60.9323C442.061 67.9792 434.432 72.2592 426.224 72.2592 424.403 72.2592 422.927 70.7651 422.927 68.9225 422.927 67.0798 424.403 65.5857 426.224 65.5857 432.158 65.5857 437.675 62.4916 440.82 57.3968L442.55 54.5911 453.514 34.8443C449 36.1976 444.985 39.0236 442.152 42.9744L441.286 44.1801C440.219 45.6703 438.157 46.0015 436.685 44.9198 435.211 43.8374 434.886 41.7514 435.954 40.2599L436.815 39.0542C442.124 31.6508 450.617 27.2681 459.652 27.2681L470.441 27.2681Z" fill="#FFFFFF" transform="matrix(1 0 0 1.00636 1385 45)"/><path d="M475.197 17.4891C475.197 21.6463 471.867 25.0165 467.761 25.0165 463.655 25.0165 460.327 21.6463 460.327 17.4891 460.327 13.3319 463.655 9.9618 467.761 9.9618 471.867 9.9618 475.197 13.3319 475.197 17.4891Z" fill="#FFFFFF" transform="matrix(1 0 0 1.00636 1385 45)"/><path d="M374.497 58.6011 374.497 39.9074 377.648 39.9074 377.648 58.6011 374.497 58.6011ZM374.497 36.3979 374.497 32.4586 377.648 32.4586 377.648 36.3979 374.497 36.3979Z" fill="#FFFFFF" transform="matrix(1 0 0 1.00636 1385 45)"/><path d="M353.196 53.1929C353.196 51.9992 353.53 50.9726 354.199 50.1131 354.891 49.2297 355.835 48.5493 357.029 48.0718 358.223 47.5943 359.608 47.3556 361.183 47.3556 362.019 47.3556 362.902 47.4272 363.833 47.5705 364.765 47.6898 365.587 47.8808 366.303 48.1435L366.303 46.7826C366.303 45.3501 365.874 44.228 365.014 43.4163 364.155 42.5807 362.937 42.1629 361.361 42.1629 360.335 42.1629 359.345 42.3539 358.39 42.7359 357.459 43.094 356.467 43.6192 355.417 44.3116L354.271 42.0913C355.488 41.2557 356.706 40.6349 357.923 40.2291 359.141 39.7993 360.406 39.5845 361.719 39.5845 364.107 39.5845 365.993 40.253 367.378 41.5899 368.762 42.903 369.455 44.7413 369.455 47.1049L369.455 55.0193C369.455 55.4013 369.526 55.6878 369.67 55.8788 369.837 56.0459 370.099 56.1414 370.457 56.1653L370.457 58.6005C370.147 58.6482 369.874 58.684 369.635 58.7079 369.42 58.7318 369.24 58.7437 369.097 58.7437 368.357 58.7437 367.797 58.5408 367.415 58.1349 367.056 57.729 366.852 57.2993 366.805 56.8457L366.733 55.6639C365.921 56.7144 364.86 57.5261 363.547 58.0991 362.234 58.6721 360.932 58.9586 359.642 58.9586 358.401 58.9586 357.292 58.7079 356.313 58.2065 355.334 57.6813 354.57 56.9889 354.021 56.1295 353.472 55.2461 353.196 54.2673 353.196 53.1929ZM365.372 54.5179C365.659 54.1837 365.887 53.8494 366.054 53.5152 366.221 53.1571 366.303 52.8587 366.303 52.6199L366.303 50.2922C365.563 50.0057 364.788 49.7908 363.977 49.6475 363.165 49.4804 362.364 49.3969 361.576 49.3969 359.977 49.3969 358.677 49.7192 357.674 50.3638 356.695 50.9845 356.204 51.844 356.204 52.9422 356.204 53.5391 356.361 54.124 356.671 54.697 357.005 55.2461 357.483 55.6997 358.104 56.0578 358.748 56.4159 359.536 56.595 360.467 56.595 361.446 56.595 362.377 56.404 363.26 56.022 364.144 55.6162 364.847 55.1148 365.372 54.5179Z" fill="#FFFFFF" transform="matrix(1 0 0 1.00636 1385 45)"/><path d="M347.176 58.6015 347.176 54.5906 349.826 54.5906 349.826 58.6015 347.176 58.6015Z" fill="#FFFFFF" transform="matrix(1 0 0 1.00636 1385 45)"/><path d="M330.843 59.0868C328.931 59.0868 327.182 58.7465 325.593 58.0659 324.037 57.3527 322.676 56.3966 321.508 55.1975 320.375 53.9658 319.483 52.5559 318.834 50.9678 318.218 49.3795 317.912 47.6942 317.912 45.9116 317.912 43.5131 318.461 41.3253 319.564 39.3483 320.666 37.3711 322.19 35.783 324.135 34.5839 326.112 33.3845 328.365 32.785 330.891 32.785 333.452 32.785 335.672 33.4008 337.552 34.6325 339.464 35.8316 340.94 37.4197 341.977 39.3969 343.045 41.3416 343.581 43.4482 343.581 45.7172 343.581 46.0412 343.564 46.3652 343.531 46.6895 343.531 46.9812 343.516 47.208 343.484 47.3701L322.433 47.3701C322.563 49.0231 323.017 50.4977 323.794 51.7943 324.603 53.0583 325.641 54.063 326.906 54.8085 328.169 55.5215 329.53 55.8781 330.989 55.8781 332.545 55.8781 334.003 55.4892 335.364 54.7113 336.758 53.9334 337.715 52.9125 338.234 51.6484L341.928 52.6694C341.376 53.9009 340.551 55.003 339.449 55.9754 338.379 56.9477 337.098 57.7093 335.607 58.2604 334.149 58.8112 332.56 59.0868 330.843 59.0868ZM322.288 44.4045 339.594 44.4045C339.464 42.7515 338.995 41.293 338.184 40.029 337.374 38.7649 336.337 37.7763 335.073 37.0633 333.808 36.3501 332.415 35.9938 330.891 35.9938 329.4 35.9938 328.024 36.3501 326.759 37.0633 325.495 37.7763 324.458 38.7649 323.648 40.029 322.869 41.293 322.416 42.7515 322.288 44.4045Z" fill="#FFFFFF" transform="matrix(1 0 0 1.00636 1385 45)"/><path d="M304.16 59.0868C302.248 59.0868 300.499 58.7465 298.91 58.0659 297.354 57.3527 295.993 56.3804 294.825 55.1489 293.693 53.9172 292.8 52.5073 292.151 50.9192 291.537 49.3309 291.229 47.6456 291.229 45.863 291.229 43.4645 291.763 41.2767 292.833 39.2997 293.903 37.3225 295.409 35.7507 297.354 34.5839 299.299 33.3845 301.552 32.785 304.113 32.785 306.609 32.785 308.779 33.3522 310.626 34.4866 312.506 35.5885 313.901 37.0794 314.808 38.9594L310.626 40.2721C309.979 39.0727 309.07 38.149 307.904 37.5009 306.737 36.8202 305.441 36.4799 304.015 36.4799 302.459 36.4799 301.033 36.8849 299.737 37.6954 298.472 38.5056 297.467 39.6238 296.722 41.0499 295.976 42.4435 295.605 44.0479 295.605 45.863 295.605 47.6456 295.976 49.2662 296.722 50.7247 297.499 52.1507 298.522 53.2851 299.785 54.1279 301.081 54.9705 302.507 55.392 304.063 55.392 305.068 55.392 306.025 55.2135 306.932 54.8572 307.872 54.5006 308.681 54.0307 309.363 53.4473 310.075 52.8313 310.561 52.167 310.821 51.454L315.001 52.718C314.483 53.9495 313.688 55.0516 312.621 56.024 311.583 56.9638 310.335 57.7093 308.877 58.2604 307.451 58.8112 305.879 59.0868 304.16 59.0868Z" fill="#FFFFFF" transform="matrix(1 0 0 1.00636 1385 45)"/><path d="M289.304 36.9667C287.164 36.9991 285.269 37.5502 283.615 38.6197 281.994 39.6567 280.844 41.0992 280.164 42.9466L280.164 58.6013 275.884 58.6013 275.884 33.2232 279.871 33.2232 279.871 39.1059C280.746 37.3557 281.896 35.9458 283.324 34.8762 284.783 33.7741 286.304 33.1583 287.893 33.0288 288.217 33.0288 288.492 33.0288 288.72 33.0288 288.946 33.0288 289.141 33.0448 289.304 33.0774L289.304 36.9667Z" fill="#FFFFFF" transform="matrix(1 0 0 1.00636 1385 45)"/><path d="M258.391 59.0868C256.479 59.0868 254.729 58.7465 253.141 58.0659 251.584 57.3527 250.224 56.3966 249.056 55.1975 247.923 53.9658 247.031 52.5559 246.382 50.9678 245.768 49.3795 245.46 47.6942 245.46 45.9116 245.46 43.5131 246.011 41.3253 247.111 39.3483 248.214 37.3711 249.737 35.783 251.682 34.5839 253.659 33.3845 255.912 32.785 258.441 32.785 261 32.785 263.22 33.4008 265.1 34.6325 267.012 35.8316 268.488 37.4197 269.525 39.3969 270.595 41.3416 271.129 43.4482 271.129 45.7172 271.129 46.0412 271.112 46.3652 271.081 46.6895 271.081 46.9812 271.064 47.208 271.031 47.3701L249.981 47.3701C250.111 49.0231 250.564 50.4977 251.341 51.7943 252.151 53.0583 253.188 54.063 254.454 54.8085 255.717 55.5215 257.078 55.8781 258.536 55.8781 260.092 55.8781 261.551 55.4892 262.912 54.7113 264.305 53.9334 265.262 52.9125 265.781 51.6484L269.475 52.6694C268.924 53.9009 268.099 55.003 266.997 55.9754 265.927 56.9477 264.646 57.7093 263.155 58.2604 261.696 58.8112 260.11 59.0868 258.391 59.0868ZM249.835 44.4045 267.142 44.4045C267.012 42.7515 266.543 41.293 265.733 40.029 264.922 38.7649 263.884 37.7763 262.621 37.0633 261.358 36.3501 259.962 35.9938 258.441 35.9938 256.95 35.9938 255.572 36.3501 254.308 37.0633 253.043 37.7763 252.006 38.7649 251.196 40.029 250.419 41.293 249.963 42.7515 249.835 44.4045Z" fill="#FFFFFF" transform="matrix(1 0 0 1.00636 1385 45)"/><path d="M240.509 58.6007 236.231 58.6007 236.231 44.4045C236.231 41.7466 235.795 39.7859 234.918 38.5218 234.076 37.2578 232.813 36.6258 231.126 36.6258 229.409 36.6258 227.853 37.2578 226.46 38.5218 225.066 39.7533 224.077 41.3577 223.493 43.3349L223.493 58.6007 219.215 58.6007 219.215 44.4045C219.215 41.7143 218.794 39.7533 217.952 38.5218 217.11 37.2578 215.845 36.6258 214.159 36.6258 212.474 36.6258 210.918 37.2415 209.492 38.4732 208.098 39.6724 207.11 41.2767 206.526 43.2863L206.526 58.6007 202.248 58.6007 202.248 33.2226 206.138 33.2226 206.138 38.6677C207.175 36.7877 208.52 35.3455 210.173 34.3408 211.826 33.3035 213.689 32.785 215.764 32.785 217.869 32.785 219.556 33.3684 220.819 34.5352 222.084 35.6695 222.861 37.1443 223.154 38.9594 224.287 36.9498 225.666 35.4264 227.287 34.3894 228.906 33.3198 230.753 32.785 232.828 32.785 234.286 32.785 235.502 33.0605 236.474 33.6115 237.479 34.13 238.273 34.8756 238.857 35.8479 239.441 36.7877 239.862 37.9059 240.12 39.2025 240.381 40.4989 240.509 41.9088 240.509 43.4322L240.509 58.6007Z" fill="#FFFFFF" transform="matrix(1 0 0 1.00636 1385 45)"/><path d="M195.595 58.6007 191.316 58.6007 191.316 44.4045C191.316 41.7466 190.879 39.7859 190.004 38.5218 189.161 37.2578 187.897 36.6258 186.212 36.6258 184.494 36.6258 182.938 37.2578 181.544 38.5218 180.151 39.7533 179.162 41.3577 178.579 43.3349L178.579 58.6007 174.3 58.6007 174.3 44.4045C174.3 41.7143 173.879 39.7533 173.036 38.5218 172.194 37.2578 170.93 36.6258 169.244 36.6258 167.559 36.6258 166.003 37.2415 164.577 38.4732 163.183 39.6724 162.195 41.2767 161.611 43.2863L161.611 58.6007 157.333 58.6007 157.333 33.2226 161.222 33.2226 161.222 38.6677C162.26 36.7877 163.605 35.3455 165.258 34.3408 166.911 33.3035 168.774 32.785 170.849 32.785 172.955 32.785 174.641 33.3684 175.905 34.5352 177.169 35.6695 177.947 37.1443 178.238 38.9594 179.373 36.9498 180.75 35.4264 182.371 34.3894 183.991 33.3198 185.839 32.785 187.913 32.785 189.372 32.785 190.587 33.0605 191.559 33.6115 192.564 34.13 193.358 34.8756 193.942 35.8479 194.525 36.7877 194.947 37.9059 195.206 39.2025 195.465 40.4989 195.595 41.9088 195.595 43.4322L195.595 58.6007Z" fill="#FFFFFF" transform="matrix(1 0 0 1.00636 1385 45)"/><path d="M139.314 59.0868C137.402 59.0868 135.668 58.7465 134.112 58.0659 132.556 57.3527 131.211 56.3966 130.077 55.1975 128.942 53.9658 128.067 52.5559 127.452 50.9678 126.836 49.3795 126.528 47.7105 126.528 45.9602 126.528 44.1775 126.836 42.4922 127.452 40.9041 128.067 39.3158 128.942 37.9222 130.077 36.723 131.211 35.4913 132.556 34.5352 134.112 33.8546 135.7 33.1414 137.434 32.785 139.314 32.785 141.226 32.785 142.96 33.1414 144.516 33.8546 146.072 34.5352 147.417 35.4913 148.551 36.723 149.718 37.9222 150.609 39.3158 151.225 40.9041 151.841 42.4922 152.149 44.1775 152.149 45.9602 152.149 47.7105 151.841 49.3795 151.225 50.9678 150.609 52.5559 149.734 53.9658 148.6 55.1975 147.465 56.3966 146.104 57.3527 144.516 58.0659 142.96 58.7465 141.226 59.0868 139.314 59.0868ZM130.903 46.0089C130.903 47.7591 131.276 49.3472 132.022 50.7733 132.799 52.1993 133.82 53.3338 135.084 54.1765 136.348 54.9867 137.758 55.392 139.314 55.392 140.87 55.392 142.28 54.9705 143.544 54.1279 144.84 53.2851 145.861 52.1507 146.607 50.7247 147.385 49.2662 147.773 47.6618 147.773 45.9116 147.773 44.1614 147.385 42.5731 146.607 41.1472 145.861 39.721 144.84 38.5865 143.544 37.744 142.28 36.9012 140.87 36.4799 139.314 36.4799 137.758 36.4799 136.348 36.9175 135.084 37.7926 133.82 38.6351 132.799 39.7696 132.022 41.1958 131.276 42.6217 130.903 44.2261 130.903 46.0089Z" fill="#FFFFFF" transform="matrix(1 0 0 1.00636 1385 45)"/><path d="M93.5351 41.0996C93.5351 38.993 93.8916 36.9348 94.6046 34.9253 95.3502 32.8834 96.4197 31.0359 97.8134 29.3829 99.2395 27.6976 100.973 26.3687 103.015 25.3963 105.057 24.3916 107.375 23.8892 109.968 23.8892 113.047 23.8892 115.688 24.6024 117.892 26.0283 120.096 27.4222 121.733 29.221 122.803 31.4248L119.351 33.6612C118.67 32.2027 117.795 31.0522 116.725 30.2094 115.688 29.3343 114.554 28.7186 113.322 28.362 112.123 28.0056 110.94 27.8272 109.773 27.8272 107.861 27.8272 106.159 28.2161 104.668 28.994 103.21 29.7719 101.978 30.8091 100.973 32.1055 99.9688 33.4021 99.207 34.8606 98.6885 36.481 98.2023 38.0693 97.9592 39.6737 97.9592 41.2941 97.9592 43.0769 98.2509 44.7945 98.8343 46.4475 99.4501 48.1005 100.293 49.559 101.362 50.823 102.432 52.0871 103.696 53.092 105.155 53.8373 106.613 54.5828 108.201 54.9555 109.919 54.9555 111.118 54.9555 112.35 54.745 113.614 54.3235 114.878 53.9022 116.061 53.2539 117.163 52.3788 118.265 51.4713 119.14 50.3045 119.788 48.8784L123.435 50.8717C122.722 52.5895 121.619 54.048 120.129 55.2472 118.638 56.4466 116.968 57.354 115.121 57.9697 113.306 58.5857 111.507 58.8935 109.725 58.8935 107.359 58.8935 105.187 58.3912 103.21 57.3863 101.233 56.3493 99.515 54.988 98.0564 53.3025 96.6303 51.5849 95.5121 49.6725 94.7019 47.5657 93.924 45.4265 93.5351 43.2713 93.5351 41.0996Z" fill="#FFFFFF" transform="matrix(1 0 0 1.00636 1385 45)"/><path d="M85.0496 58.6002 78.535 58.6002 78.535 44.3068C78.535 42.2649 78.1786 40.7741 77.4654 39.8341 76.7524 38.8943 75.7638 38.4242 74.4997 38.4242 73.6246 38.4242 72.7335 38.6512 71.8258 39.1048 70.9507 39.5586 70.1568 40.1907 69.4436 41.0009 68.7306 41.7787 68.2121 42.6864 67.8878 43.7234L67.8878 58.6002 61.3731 58.6002 61.3731 33.1249 67.2558 33.1249 67.2558 37.8408C67.9041 36.7389 68.7306 35.8151 69.7353 35.0696 70.7402 34.2917 71.8907 33.7083 73.1871 33.3194 74.516 32.8981 75.9096 32.6874 77.3682 32.6874 78.9565 32.6874 80.2528 32.9791 81.2575 33.5625 82.2948 34.1135 83.0726 34.8751 83.5911 35.8475 84.1422 36.7875 84.5149 37.857 84.7093 39.0562 84.9364 40.2556 85.0496 41.471 85.0496 42.7025L85.0496 58.6002Z" fill="#FFFFFF" transform="matrix(1 0 0 1.00636 1385 45)"/><path d="M31.0787 49.0726 31.0787 33.1262 37.5933 33.1262 37.5933 47.6627C37.5933 49.6074 37.9499 51.0822 38.6629 52.0869 39.3761 53.0592 40.4294 53.5454 41.823 53.5454 42.6658 53.5454 43.4923 53.3832 44.3025 53.0592 45.1453 52.7026 45.9069 52.1841 46.5875 51.5035 47.3007 50.8228 47.9002 49.964 48.3863 48.9268L48.3863 33.1262 54.901 33.1262 54.901 51.309C54.901 51.9896 55.0145 52.4758 55.2413 52.7675 55.5007 53.0592 55.9059 53.2374 56.4568 53.3023L56.4568 58.6015C55.8087 58.6988 55.2576 58.7637 54.8038 58.796 54.3825 58.8609 53.9936 58.8932 53.637 58.8932 52.4702 58.8932 51.5141 58.6339 50.7686 58.1154 50.0556 57.5643 49.6343 56.819 49.5045 55.879L49.3587 53.8371C48.2244 55.555 46.7659 56.8676 44.9831 57.7751 43.2006 58.6502 41.2396 59.0877 39.1005 59.0877 36.4752 59.0877 34.4818 58.2449 33.1206 56.5596 31.7593 54.8418 31.0787 52.3462 31.0787 49.0726Z" fill="#FFFFFF" transform="matrix(1 0 0 1.00636 1385 45)"/><path d="M0 58.6024 0 24.0843 15.2657 24.0843C16.8539 24.0843 18.3124 24.4084 19.6413 25.0567 21.0026 25.7047 22.1694 26.5798 23.1417 27.682 24.1464 28.7839 24.9082 30.0156 25.4267 31.3769 25.9778 32.7382 26.2532 34.1318 26.2532 35.5579 26.2532 37.0164 25.9938 38.4263 25.4753 39.7876 24.9892 41.1163 24.2762 42.2831 23.3362 43.288 22.3962 44.2927 21.2943 45.0706 20.0302 45.6217L27.9062 58.6024 20.5164 58.6024 13.4183 47.0316 6.70915 47.0316 6.70915 58.6024 0 58.6024ZM6.70915 41.1489 15.1199 41.1489C15.9626 41.1489 16.708 40.9058 17.3563 40.4196 18.0045 39.9009 18.5231 39.2203 18.912 38.3777 19.301 37.535 19.4954 36.595 19.4954 35.5579 19.4954 34.4558 19.2686 33.4997 18.8148 32.6895 18.361 31.8468 17.7776 31.1824 17.0646 30.6962 16.3839 30.2101 15.6385 29.967 14.8282 29.967L6.70915 29.967 6.70915 41.1489Z" fill="#FFFFFF" transform="matrix(1 0 0 1.00636 1385 45)"/><path d="M404.081 0 405.39 0 405.39 82.4753 404.081 82.4753 404.081 0Z" fill="#FFFFFF" transform="matrix(1 0 0 1.00636 1385 45)"/></g></svg>